<?xml version="1.0" encoding="utf-8"?>
<!-- Generator: Adobe Illustrator 16.0.0, SVG Export Plug-In . SVG Version: 6.00 Build 0)  -->
<!DOCTYPE svg PUBLIC "-//W3C//DTD SVG 1.1//EN" "http://www.w3.org/Graphics/SVG/1.1/DTD/svg11.dtd">
<svg version="1.1" id="Illustration" xmlns="http://www.w3.org/2000/svg" xmlns:xlink="http://www.w3.org/1999/xlink" x="0px"
	 y="0px" width="3216px" height="2912px" viewBox="0 0 3216 2912" enable-background="new 0 0 3216 2912" xml:space="preserve">
<g>
	<g>
		<g opacity="0.3">
			<path fill="#91B3FA" d="M983.079,305.937c-4.795,2.9-11.034,1.361-13.931-3.434c-5.632-9.314-11.751-18.523-18.19-27.371
				c-3.258-4.477-2.318-10.726,2.076-14.053c0.051-0.04,0.104-0.079,0.157-0.12c4.53-3.296,10.875-2.295,14.172,2.236
				c6.777,9.312,13.221,19.007,19.146,28.813c2.712,4.483,1.541,10.231-2.546,13.327
				C983.683,305.549,983.389,305.752,983.079,305.937z M916.665,234.218c-7.581-7.885-15.571-15.518-23.757-22.696
				c-4.208-3.69-4.631-10.101-0.938-14.314c3.723-4.215,10.106-4.631,14.318-0.936c8.611,7.551,17.022,15.586,25,23.88
				c3.883,4.038,3.757,10.461-0.28,14.344c-0.295,0.282-0.601,0.544-0.917,0.783C926.049,238.339,920.267,237.962,916.665,234.218z
				 M850.443,179.218c-9.12-5.982-18.61-11.64-28.217-16.817c-4.929-2.658-6.772-8.813-4.115-13.744
				c2.663-4.923,8.81-6.771,13.744-4.114c10.114,5.452,20.113,11.412,29.714,17.711c4.684,3.072,5.99,9.361,2.921,14.047
				c-0.656,0.998-1.457,1.844-2.356,2.525C858.81,181.342,854.129,181.636,850.443,179.218z M773.584,140.41
				c-10.238-3.798-20.762-7.191-31.277-10.096c-5.399-1.492-8.569-7.079-7.078-12.479c1.497-5.398,7.082-8.563,12.479-7.079
				c11.072,3.059,22.148,6.634,32.928,10.626c5.251,1.947,7.933,7.785,5.985,13.037c-0.697,1.88-1.892,3.431-3.38,4.558
				C780.57,141,776.957,141.658,773.584,140.41z M689.995,119.692c-10.801-1.425-21.817-2.407-32.738-2.915
				c-5.598-0.264-9.922-5.012-9.663-10.607c0.261-5.601,5.014-9.924,10.609-9.658c11.489,0.535,23.081,1.568,34.444,3.067
				c5.555,0.73,9.464,5.827,8.729,11.384c-0.367,2.799-1.845,5.18-3.931,6.76C695.393,119.277,692.75,120.056,689.995,119.692z
				 M603.905,117.985c-10.864,1-21.817,2.481-32.563,4.4c-5.515,0.984-10.786-2.688-11.77-8.201
				c-0.987-5.517,2.684-10.785,8.201-11.772c11.307-2.021,22.84-3.577,34.271-4.63c5.58-0.513,10.518,3.592,11.031,9.172
				c0.336,3.624-1.281,6.977-3.984,9.023C607.634,117.081,605.862,117.807,603.905,117.985z M287.208,321.968
				c-4.928-2.666-6.761-8.822-4.093-13.751c5.464-10.093,11.444-20.084,17.772-29.693c3.082-4.68,9.374-5.975,14.052-2.891
				c4.678,3.078,5.973,9.37,2.893,14.048c-6.009,9.124-11.686,18.612-16.874,28.197c-0.712,1.314-1.67,2.408-2.79,3.256
				C295.094,323.462,290.819,323.925,287.208,321.968z M519.631,135.395c-10.364,3.39-20.707,7.271-30.741,11.538
				c-5.158,2.191-11.115-0.211-13.307-5.366c-2.193-5.158,0.224-11.09,5.368-13.306c10.567-4.492,21.459-8.58,32.373-12.148
				c5.325-1.741,11.053,1.163,12.796,6.489c1.381,4.224-0.161,8.701-3.518,11.242C521.731,134.505,520.731,135.033,519.631,135.395z
				 M335.908,248.177c-4.204-3.7-4.61-10.112-0.908-14.318c7.585-8.611,15.643-17.01,23.943-24.965
				c4.032-3.898,10.467-3.736,14.344,0.307c3.873,4.044,3.736,10.466-0.309,14.344c-7.889,7.56-15.546,15.541-22.752,23.727
				c-0.46,0.522-0.965,0.983-1.497,1.387C344.964,251.51,339.59,251.419,335.908,248.177z M441.374,171.194
				c-9.338,5.62-18.557,11.716-27.399,18.125c-4.537,3.29-10.879,2.277-14.168-2.26c-3.244-4.478-2.301-10.715,2.088-14.037
				c0.057-0.043,0.115-0.087,0.174-0.127c9.308-6.75,19.013-13.17,28.84-19.086c4.804-2.887,11.035-1.339,13.925,3.462
				c2.699,4.482,1.524,10.22-2.558,13.311C441.989,170.798,441.687,171.002,441.374,171.194z"/>
			<path fill="#91B3FA" d="M270.064,386.589c1.592-1.206,2.848-2.893,3.514-4.937c1.619-4.975,3.372-9.995,5.202-14.93
				c1.951-5.25-0.727-11.092-5.977-13.041c-5.251-1.952-11.098,0.721-13.042,5.979c-1.928,5.188-3.769,10.47-5.475,15.703
				c-1.735,5.325,1.176,11.054,6.5,12.787C264.072,389.223,267.506,388.526,270.064,386.589z"/>
		</g>
		<g opacity="0.3">
			<path fill="#91B3FA" d="M296.681,694.719c3.903-2.955,5.195-8.388,2.821-12.848c-2.458-4.615-4.862-9.361-7.14-14.103
				c-2.428-5.051-8.489-7.177-13.538-4.75c-5.071,2.438-7.175,8.49-4.749,13.538c2.399,4.991,4.93,9.99,7.518,14.851
				c2.634,4.944,8.775,6.818,13.723,4.187C295.801,695.335,296.257,695.04,296.681,694.719z"/>
			<path fill="#91B3FA" d="M867.552,836.179c-4.626,3.16-10.94,1.971-14.1-2.659c-3.159-4.627-1.968-10.927,2.658-14.097
				c8.809-6.015,17.497-12.499,25.928-19.341c4.316-3.528,10.74-2.864,14.271,1.485c3.53,4.351,2.865,10.739-1.483,14.271
				c-3.652,2.965-7.34,5.857-11.062,8.675C878.455,828.533,873.001,832.459,867.552,836.179z M920.95,778.627
				c-4.084-3.83-4.29-10.25-0.458-14.336c7.356-7.847,14.463-16.086,21.118-24.496c3.459-4.398,9.855-5.137,14.25-1.66
				c4.392,3.475,5.135,9.855,1.658,14.247c-7.006,8.854-14.485,17.531-22.23,25.785c-0.4,0.429-0.831,0.814-1.283,1.156
				C930.138,782.253,924.61,782.06,920.95,778.627z M819.873,864.152c-10.103,5.03-20.56,9.699-31.083,13.87
				c-5.209,2.064-11.104-0.483-13.171-5.693c-2.065-5.207,0.487-11.096,5.691-13.168c9.996-3.96,19.924-8.392,29.517-13.171
				c5.016-2.496,11.105-0.457,13.605,4.56c2.208,4.437,0.864,9.714-2.949,12.602C820.987,863.527,820.45,863.864,819.873,864.152z
				 M974.891,710.363c-4.828-2.841-6.441-9.061-3.598-13.888c5.447-9.255,10.562-18.854,15.205-28.528
				c2.423-5.057,8.48-7.183,13.534-4.757c5.051,2.423,7.181,8.48,4.756,13.531c-4.888,10.189-10.275,20.299-16.011,30.044
				c-0.694,1.177-1.586,2.166-2.612,2.943C982.985,712.116,978.539,712.511,974.891,710.363z M736.16,894.803
				c-10.954,2.684-22.177,4.936-33.359,6.693c-5.534,0.87-10.725-2.908-11.597-8.441c-0.873-5.537,2.91-10.729,8.443-11.599
				c10.623-1.672,21.282-3.81,31.687-6.359c5.441-1.333,10.936,1.998,12.269,7.44c0.991,4.056-0.604,8.137-3.731,10.505
				C738.801,893.854,737.548,894.464,736.16,894.803z M647.758,906.352c-11.306,0.225-22.75-0.025-34.019-0.742
				c-5.592-0.358-9.836-5.177-9.479-10.77c0.356-5.6,5.177-9.841,10.768-9.478c10.708,0.68,21.584,0.918,32.327,0.706
				c5.603-0.111,10.232,4.34,10.345,9.941c0.064,3.375-1.525,6.398-4.024,8.292C652.023,905.551,649.981,906.308,647.758,906.352z
				 M558.935,898.36c-11.092-2.243-22.212-4.981-33.049-8.133c-5.38-1.567-8.469-7.195-6.907-12.574
				c1.568-5.387,7.197-8.472,12.575-6.907c10.297,2.998,20.861,5.596,31.403,7.728c5.491,1.11,9.043,6.464,7.931,11.953
				c-0.511,2.523-1.913,4.635-3.815,6.075C564.833,898.197,561.903,898.96,558.935,898.36z M473.97,871.183
				c-10.332-4.613-20.584-9.722-30.475-15.186c-4.905-2.708-6.685-8.88-3.975-13.785c2.704-4.896,8.881-6.681,13.785-3.973
				c9.39,5.187,19.125,10.037,28.938,14.42c5.115,2.284,7.411,8.281,5.126,13.396c-0.723,1.616-1.813,2.949-3.13,3.946
				C481.386,872.163,477.473,872.745,473.97,871.183z M397.015,825.977c-9.038-6.76-17.906-13.997-26.36-21.512
				c-4.188-3.723-4.566-10.137-0.844-14.323c3.712-4.173,10.133-4.566,14.32-0.844c8.031,7.14,16.454,14.013,25.038,20.436
				c4.486,3.354,5.402,9.713,2.045,14.197c-0.582,0.781-1.257,1.456-1.998,2.017C405.703,828.607,400.718,828.748,397.015,825.977z
				 M331.931,765.04c-5.416-6.312-10.704-12.87-15.717-19.488c-1.814-2.397-3.596-4.806-5.35-7.23
				c-3.283-4.537-2.388-10.927,2.273-14.162c4.536-3.287,10.879-2.27,14.164,2.271c1.667,2.302,3.363,4.597,5.088,6.874
				c4.766,6.293,9.788,12.524,14.938,18.526c3.648,4.25,3.158,10.655-1.094,14.303c-0.16,0.137-0.322,0.27-0.488,0.396
				C341.505,769.739,335.441,769.132,331.931,765.04z"/>
			<path fill="#91B3FA" d="M1021.782,630.084c1.608-1.218,2.869-2.923,3.531-4.986c1.676-5.229,3.271-10.595,4.745-15.944
				c1.488-5.402-1.685-10.987-7.085-12.475c-5.402-1.485-10.986,1.679-12.474,7.085c-1.401,5.082-2.918,10.178-4.508,15.145
				c-1.711,5.331,1.229,11.044,6.564,12.754C1015.827,632.709,1019.239,632.01,1021.782,630.084z"/>
		</g>
		<g>
			<path fill="#91B3FA" d="M942.349,475.374c0.072-2.022-1.145-3.867-3.031-4.596l-53.834-20.779
				c-5.19-26.445-14.633-52.252-28.388-76.333l27.122-50.892c0.951-1.786,0.665-3.978-0.713-5.459l-47.134-50.688
				c-1.378-1.482-3.544-1.927-5.393-1.107l-52.727,23.358c-23.019-15.466-48.074-26.758-74.072-33.852l-16.818-55.2
				c-0.591-1.935-2.343-3.282-4.363-3.355l-69.171-2.514c-2.021-0.073-3.868,1.145-4.596,3.032l-20.779,53.834
				c-26.444,5.188-52.252,14.631-76.333,28.388l-50.893-27.122c-1.785-0.952-3.977-0.667-5.457,0.712l-50.69,47.135
				c-1.48,1.378-1.925,3.543-1.105,5.392l23.359,52.728c-15.468,23.02-26.759,48.073-33.852,74.072l-55.202,16.817
				c-1.934,0.59-3.282,2.342-3.354,4.364l-2.513,69.171c-0.075,2.021,1.144,3.867,3.029,4.595l53.836,20.78
				c5.188,26.444,14.631,52.251,28.388,76.332l-27.122,50.893c-0.953,1.785-0.666,3.978,0.71,5.458l47.137,50.689
				c1.378,1.481,3.543,1.926,5.392,1.106l52.728-23.358c23.019,15.466,48.074,26.758,74.072,33.852l16.818,55.199
				c0.588,1.936,2.341,3.283,4.362,3.356l69.173,2.513c2.021,0.073,3.866-1.144,4.595-3.03l20.779-53.835
				c26.444-5.188,52.251-14.632,76.333-28.388l50.891,27.123c1.786,0.95,3.978,0.665,5.46-0.713l50.688-47.136
				c1.479-1.377,1.926-3.542,1.105-5.393l-23.357-52.726c15.466-23.02,26.757-48.074,33.851-74.071l55.199-16.818
				c1.937-0.59,3.283-2.343,3.357-4.363L942.349,475.374z"/>
			<g>
				<path fill="#BDD0FB" d="M670.846,559.925c-33.633,18.452-76.009,6.104-94.464-27.532c-8.942-16.293-11-35.093-5.799-52.935
					c5.196-17.839,17.032-32.591,33.329-41.528c33.637-18.452,76.011-6.104,94.467,27.532c16.788,30.601,8.082,68.434-18.956,88.908
					C676.742,556.4,673.88,558.261,670.846,559.925z M586.166,484.001c-3.988,13.681-2.408,28.093,4.445,40.588
					c14.149,25.784,46.642,35.257,72.429,21.107c25.8-14.145,35.258-46.641,21.108-72.43
					c-14.148-25.785-46.642-35.258-72.428-21.108c-2.339,1.283-4.553,2.722-6.641,4.303
					C596.013,463.328,589.407,472.883,586.166,484.001z"/>
			</g>
			<path fill="#BDD0FB" d="M738.955,635.342c4.644-3.517,9.138-7.287,13.462-11.308l0,0c1.361-1.265,2.702-2.553,4.022-3.861
				c6.508-6.454,12.491-13.416,17.859-20.776c0.074-0.101,0.146-0.201,0.22-0.301c0.207-0.285,0.412-0.571,0.617-0.859
				c0.4-0.558,0.794-1.119,1.188-1.681c1.032-1.478,0.942-3.403-0.089-4.77c-0.252-0.331-0.559-0.63-0.917-0.881
				c-1.837-1.283-4.364-0.826-5.649,1.006c-6.599,9.457-14.263,18.264-22.778,26.178c-42.283,39.33-100.058,51.827-152.19,38.28
				c-28.998-7.531-56.25-23.125-78.119-46.646c-3.837-4.124-7.437-8.411-10.789-12.842c-22.569-29.811-34.105-66.174-32.727-104.044
				c1.579-43.5,20.005-83.782,51.88-113.423c65.839-61.21,169.124-57.436,230.311,8.366c3.773,4.057,7.326,8.29,10.647,12.679
				c14.396,19.017,24.471,40.972,29.424,64.326c0.129,0.603,0.383,1.146,0.734,1.605c0.917,1.214,2.488,1.858,4.076,1.521
				c2.192-0.472,3.598-2.614,3.128-4.813c-5.201-24.518-15.776-47.57-30.89-67.535c-3.486-4.606-7.216-9.049-11.175-13.309
				c-64.24-69.085-172.723-73.002-241.782-8.785c-33.465,31.118-52.806,73.405-54.463,119.072
				c-1.446,39.757,10.663,77.931,34.354,109.228c3.522,4.65,7.301,9.15,11.323,13.479c31.121,33.466,73.408,52.809,119.074,54.468
				C669.474,671.162,707.656,659.044,738.955,635.342z"/>
		</g>
	</g>
	<g>
		<g opacity="0.3">
			<path fill="#91B3FA" d="M1421.328,309.468c2.161-1.636,3.084-4.553,2.071-7.217c-1.886-4.974-3.948-9.958-6.133-14.812
				c-1.417-3.155-5.123-4.562-8.283-3.146c-3.166,1.409-4.562,5.129-3.145,8.284c2.08,4.626,4.047,9.377,5.848,14.122
				c1.225,3.233,4.843,4.859,8.08,3.637C1420.341,310.115,1420.862,309.821,1421.328,309.468z"/>
			<path fill="#91B3FA" d="M1399.637,266.528c-2.959,1.795-6.811,0.858-8.609-2.101c-4.54-7.46-9.516-14.774-14.786-21.735
				c-1.112-1.469-2.245-2.929-3.396-4.383c-2.144-2.713-1.686-6.653,1.029-8.801c2.647-1.927,6.652-1.684,8.805,1.031
				c1.202,1.522,2.388,3.051,3.552,4.587c5.525,7.297,10.742,14.967,15.5,22.792c1.687,2.768,0.968,6.328-1.564,8.245
				C1399.999,266.292,1399.819,266.411,1399.637,266.528z M1351.625,214.6c-7.531-7.445-15.587-14.491-23.948-20.938
				c-2.742-2.114-3.25-6.043-1.137-8.786c2.105-2.724,6.045-3.252,8.787-1.137c8.765,6.756,17.214,14.142,25.107,21.95
				c2.46,2.434,2.482,6.4,0.05,8.864c-0.214,0.215-0.443,0.412-0.68,0.591C1357.359,216.995,1353.868,216.815,1351.625,214.6z
				 M1301.311,175.843c-9.109-5.366-18.651-10.213-28.367-14.414c-3.174-1.373-4.637-5.062-3.264-8.236
				c1.379-3.185,5.058-4.643,8.237-3.267c10.188,4.403,20.199,9.494,29.752,15.116c2.98,1.757,3.978,5.599,2.222,8.579
				c-0.431,0.725-0.982,1.334-1.615,1.814C1306.311,176.923,1303.565,177.168,1301.311,175.843z M1243.012,150.632
				c-10.163-2.972-20.608-5.341-31.024-7.03c-3.42-0.559-5.736-3.776-5.18-7.19c0.556-3.406,3.771-5.733,7.187-5.182
				c10.932,1.776,21.874,4.258,32.535,7.375c3.321,0.97,5.227,4.454,4.256,7.774c-0.396,1.337-1.193,2.447-2.228,3.23
				C1247.027,150.767,1244.993,151.211,1243.012,150.632z M1180.324,140.418c-10.576-0.411-21.273-0.17-31.804,0.712
				c-3.444,0.291-6.476-2.271-6.766-5.721c-0.289-3.449,2.268-6.483,5.722-6.766c11.033-0.927,22.249-1.177,33.333-0.751
				c3.457,0.137,6.151,3.047,6.018,6.503c-0.076,1.952-1.037,3.663-2.481,4.757C1183.231,139.996,1181.828,140.475,1180.324,140.418
				z M1117.056,145.731c-10.347,2.172-20.653,5.011-30.639,8.442c-3.271,1.125-6.837-0.617-7.96-3.889
				c-1.122-3.271,0.611-6.825,3.889-7.964c10.469-3.599,21.283-6.577,32.139-8.855c3.386-0.707,6.707,1.459,7.417,4.844
				c0.513,2.451-0.48,4.869-2.352,6.285C1118.836,145.137,1117.994,145.535,1117.056,145.731z M1057.035,166.348
				c-9.469,4.63-18.773,9.917-27.653,15.721c-2.897,1.889-6.779,1.074-8.671-1.823c-1.893-2.894-1.053-6.731,1.818-8.676
				c9.312-6.076,19.067-11.622,28.998-16.479c3.109-1.519,6.863-0.231,8.383,2.877c1.338,2.733,0.499,5.97-1.842,7.742
				C1057.751,165.95,1057.407,166.165,1057.035,166.348z M972.005,223.4c-2.54-2.351-2.692-6.312-0.341-8.853
				c6.507-7.03,13.513-13.823,20.797-20.178c1.102-0.972,2.213-1.921,3.331-2.867c2.566-2.296,6.599-1.896,8.828,0.759
				c2.23,2.646,1.892,6.596-0.754,8.829c-1.052,0.882-2.096,1.779-3.146,2.706c-6.976,6.079-13.657,12.56-19.862,19.263
				c-0.255,0.277-0.533,0.525-0.819,0.743C977.66,225.604,974.267,225.495,972.005,223.4z"/>
		</g>
		<g opacity="0.3">
			<path fill="#91B3FA" d="M1330.689,616.285c-8.789,6.479-18.054,12.474-27.529,17.83c-3.012,1.698-6.834,0.64-8.537-2.376
				c-1.704-3.016-0.602-6.82,2.376-8.538c9.037-5.103,17.871-10.824,26.258-17.006c2.784-2.055,6.709-1.458,8.759,1.326
				c2.036,2.764,1.469,6.647-1.258,8.712C1330.758,616.233,1330.712,616.269,1330.689,616.285z M1347.032,594.99
				c-2.37-2.518-2.251-6.484,0.27-8.854c7.578-7.135,14.801-14.801,21.468-22.787c2.211-2.635,6.168-3.014,8.826-0.79
				c2.657,2.217,3.01,6.163,0.795,8.823c-6.987,8.368-14.555,16.403-22.5,23.877c-0.169,0.158-0.339,0.303-0.52,0.439
				C1352.854,597.605,1349.251,597.348,1347.032,594.99z M1273.646,648.477c-10.102,4.164-20.541,7.749-31.031,10.65
				c-3.336,0.922-6.791-1.036-7.712-4.369c-0.925-3.336,1.027-6.771,4.366-7.711c10.009-2.766,19.965-6.185,29.604-10.153
				c3.2-1.318,6.862,0.207,8.179,3.401c1.108,2.69,0.207,5.706-2.007,7.383C1274.625,647.996,1274.158,648.266,1273.646,648.477z
				 M1389.181,546.803c-2.908-1.874-3.743-5.754-1.87-8.662c5.642-8.746,10.799-17.925,15.327-27.287
				c1.512-3.108,5.26-4.412,8.367-2.913c3.115,1.51,4.421,5.256,2.912,8.371c-4.748,9.82-10.157,19.45-16.075,28.622
				c-0.412,0.633-0.916,1.168-1.482,1.598C1394.319,548.075,1391.452,548.268,1389.181,546.803z M1210.536,665.921
				c-10.783,1.609-21.774,2.574-32.678,2.872c-3.459,0.094-6.34-2.637-6.435-6.096c-0.096-3.459,2.63-6.343,6.095-6.435
				c10.4-0.277,20.884-1.201,31.164-2.74c3.422-0.51,6.612,1.849,7.124,5.275c0.35,2.344-0.651,4.584-2.421,5.923
				C1212.58,665.332,1211.61,665.76,1210.536,665.921z M1145.073,667.717c-10.875-1.022-21.785-2.715-32.424-5.027
				c-3.379-0.733-5.524-4.066-4.789-7.448c0.731-3.378,4.068-5.529,7.454-4.793c10.146,2.203,20.554,3.815,30.932,4.791
				c3.445,0.322,5.976,3.38,5.652,6.825c-0.173,1.819-1.105,3.385-2.46,4.41C1148.234,667.387,1146.695,667.868,1145.073,667.717z
				 M1081.059,653.786c-10.321-3.597-20.512-7.86-30.283-12.665c-3.106-1.53-4.384-5.283-2.855-8.39
				c1.523-3.104,5.284-4.378,8.385-2.857c9.318,4.586,19.034,8.649,28.875,12.073c3.269,1.139,4.996,4.712,3.855,7.979
				c-0.419,1.215-1.178,2.21-2.129,2.931C1085.293,654.08,1083.116,654.5,1081.059,653.786z"/>
			<path fill="#91B3FA" d="M1424.346,488.645c0.963-0.729,1.726-1.745,2.145-2.976c1.729-5.076,3.311-10.228,4.711-15.311
				c0.917-3.335-1.041-6.787-4.377-7.706c-3.332-0.908-6.781,1.044-7.708,4.378c-1.332,4.847-2.846,9.761-4.49,14.606
				c-1.116,3.276,0.641,6.837,3.915,7.948C1420.585,490.278,1422.743,489.857,1424.346,488.645z"/>
		</g>
		<g>
			<path fill="#91B3FA" d="M1373.01,380.976c0.049-1.354-0.766-2.588-2.027-3.075l-36.023-13.905
				c-3.473-17.695-9.792-34.964-18.996-51.077l18.148-34.056c0.638-1.194,0.445-2.661-0.477-3.652l-31.541-33.918
				c-0.92-0.992-2.372-1.289-3.606-0.741l-35.283,15.631c-15.402-10.35-32.168-17.905-49.566-22.652l-11.252-36.937
				c-0.396-1.295-1.568-2.196-2.92-2.246l-46.286-1.682c-1.354-0.049-2.59,0.766-3.075,2.028l-13.904,36.023
				c-17.696,3.472-34.965,9.791-51.08,18.996l-34.054-18.149c-1.195-0.637-2.663-0.445-3.654,0.477l-33.918,31.541
				c-0.991,0.922-1.287,2.37-0.739,3.607l15.631,35.283c-10.35,15.403-17.907,32.169-22.652,49.565l-36.938,11.254
				c-1.295,0.395-2.197,1.566-2.246,2.919l-1.682,46.287c-0.049,1.353,0.766,2.587,2.026,3.074l36.026,13.905
				c3.471,17.695,9.79,34.964,18.996,51.078l-18.15,34.055c-0.638,1.194-0.445,2.661,0.478,3.653l31.54,33.919
				c0.922,0.99,2.371,1.288,3.608,0.739l35.281-15.631c15.404,10.351,32.17,17.906,49.566,22.652l11.254,36.938
				c0.395,1.295,1.566,2.196,2.92,2.246l46.286,1.682c1.354,0.049,2.588-0.766,3.075-2.028l13.904-36.023
				c17.696-3.472,34.965-9.792,51.078-18.996l34.056,18.149c1.194,0.636,2.661,0.444,3.652-0.477l33.918-31.541
				c0.991-0.922,1.29-2.371,0.74-3.608l-15.63-35.281c10.35-15.404,17.905-32.17,22.652-49.566l36.938-11.254
				c1.293-0.395,2.195-1.567,2.244-2.92L1373.01,380.976z"/>
			<g>
				<path fill="#BDD0FB" d="M1191.739,438.284c-11.1,6.094-23.906,7.496-36.062,3.952c-12.15-3.539-22.199-11.603-28.287-22.703
					c-12.571-22.908-4.165-51.722,18.753-64.35c22.915-12.564,51.779-4.151,64.343,18.754c6.09,11.099,7.495,23.904,3.952,36.058
					c-2.879,9.879-8.747,18.367-16.805,24.469C1195.783,435.866,1193.811,437.145,1191.739,438.284z M1138.374,413.503
					c4.48,8.167,11.87,14.098,20.812,16.705c8.937,2.604,18.358,1.57,26.522-2.907l0,0c8.158-4.49,14.093-11.87,16.7-20.813
					c2.608-8.936,1.569-18.358-2.905-26.52c-9.246-16.853-30.477-23.041-47.331-13.799c-1.521,0.836-2.953,1.767-4.297,2.784
					C1134.327,379.213,1129.963,398.175,1138.374,413.503z"/>
			</g>
			<path fill="#BDD0FB" d="M1239.146,490.771c3.161-2.394,6.223-4.967,9.189-7.719c5.886-5.471,11.221-11.545,15.867-18.072
				c0.207-0.295,0.414-0.589,0.62-0.884c1.595-2.282,1.457-5.256-0.136-7.365c-0.388-0.512-0.863-0.974-1.417-1.359
				c-2.836-1.981-6.733-1.271-8.72,1.554c-4.281,6.135-9.243,11.834-14.745,16.944l-0.003,0.002
				c-0.301,0.281-0.607,0.56-0.911,0.835c-13.129,11.978-28.748,20.228-45.56,24.363c-9.127,2.244-18.609,3.271-28.246,3.008
				c-0.077-0.002-0.155-0.004-0.234-0.006c-0.241-0.01-0.479-0.014-0.717-0.025c-28.161-1.025-54.239-12.951-73.428-33.588
				c-2.485-2.669-4.812-5.442-6.984-8.311c-14.61-19.299-22.076-42.841-21.189-67.36c1.026-28.16,12.955-54.234,33.591-73.42
				c20.63-19.168,47.51-29.193,75.669-28.175c28.16,1.024,54.238,12.951,73.427,33.587c2.443,2.625,4.742,5.366,6.893,8.205
				c9.32,12.313,15.841,26.524,19.047,41.643c0.198,0.932,0.591,1.77,1.134,2.48c1.418,1.873,3.842,2.869,6.293,2.348
				c3.385-0.728,5.551-4.04,4.83-7.433c-3.588-16.915-10.884-32.819-21.308-46.593c-2.407-3.181-4.979-6.246-7.709-9.183
				c-21.473-23.09-50.646-36.433-82.154-37.577c-31.504-1.142-61.569,10.022-84.654,31.518
				c-23.089,21.467-36.435,50.639-37.575,82.148c-1,27.428,7.356,53.766,23.703,75.356c2.426,3.205,5.032,6.312,7.809,9.298
				C1123.094,521.688,1191.492,526.855,1239.146,490.771z"/>
		</g>
	</g>
</g>
<g>
	<linearGradient id="SVGID_1_" gradientUnits="userSpaceOnUse" x1="1784.6094" y1="2003.0146" x2="1516.709" y2="3143.3074">
		<stop  offset="0" style="stop-color:#09005D"/>
		<stop  offset="1" style="stop-color:#1A0F91"/>
	</linearGradient>
	<polygon fill="url(#SVGID_1_)" points="1374.491,2155.804 1313.26,2578.363 2023.659,2578.363 1931.128,2155.804 	"/>
	<linearGradient id="SVGID_2_" gradientUnits="userSpaceOnUse" x1="1651.6533" y1="120.4639" x2="1562.3541" y2="2249.9182">
		<stop  offset="0" style="stop-color:#09005D"/>
		<stop  offset="1" style="stop-color:#1A0F91"/>
	</linearGradient>
	<path fill="url(#SVGID_2_)" d="M181.146,802.798v1257.713c0,103.464,82.448,188.072,185.877,190.739
		c459.377,11.846,2066.06,40.568,2503.357,34.122c75.159-1.107,136.046-61.253,138.214-136.391
		c8.433-292.183,22.128-994.787-28.551-1320.979c-10.675-68.691-68.657-120.059-138.139-122.281
		c-384.9-12.312-2088.089-51.411-2525.182-41.595C241.339,665.818,181.146,727.396,181.146,802.798z"/>
	<path fill="#91B3FA" d="M260.062,796.676V1991.59c0,60.407,48.491,109.629,108.893,110.532l2438.513,30.127
		c59.883,0.896,108.969-47.283,109.192-107.173l4.079-1184.237c0.16-42.822-33.956-77.909-76.766-78.951L347.388,711.45
		C299.507,710.285,260.062,748.781,260.062,796.676z"/>
	<path fill="#91B3FA" d="M2935.02,2181.221c-0.02,0-0.04,0-0.06,0l-2674.954-45.577c-1.867-0.033-3.355-1.572-3.323-3.438
		c0.031-1.872,1.591-3.296,3.438-3.325l2674.955,45.577c1.867,0.033,3.355,1.572,3.323,3.438
		C2938.367,2179.745,2936.858,2181.221,2935.02,2181.221z"/>
	<path fill="#91B3FA" d="M1623.928,2236.886c-17.21,0-31.213-14.004-31.213-31.214s14.003-31.214,31.213-31.214
		s31.214,14.004,31.214,31.214S1641.138,2236.886,1623.928,2236.886z M1623.928,2181.221c-13.482,0-24.45,10.97-24.45,24.451
		c0,13.482,10.968,24.452,24.45,24.452c13.481,0,24.451-10.97,24.451-24.452C1648.379,2192.19,1637.409,2181.221,1623.928,2181.221z
		"/>
	<linearGradient id="SVGID_3_" gradientUnits="userSpaceOnUse" x1="1643.7998" y1="1861.5059" x2="1657.5385" y2="2699.554">
		<stop  offset="0" style="stop-color:#09005D"/>
		<stop  offset="1" style="stop-color:#1A0F91"/>
	</linearGradient>
	<path fill="url(#SVGID_3_)" d="M2176.679,2690.72H1136.96c-28.247,0-49.458-20.107-43.995-41.707l13.341-52.763
		c4.012-15.867,21.469-27.517,42.203-28.164l1002.326-31.276c21.66-0.676,40.841,10.822,45.56,27.313l24.051,84.039
		C2226.694,2669.996,2205.381,2690.72,2176.679,2690.72z"/>
	<path fill="#91B3FA" d="M1696.659,2582.372c-1.844,0-3.353-1.482-3.38-3.332c-0.026-1.869,1.465-3.404,3.332-3.431l42.951-0.628
		c1.794,0.011,3.402,1.467,3.431,3.332c0.025,1.869-1.466,3.404-3.333,3.431l-42.95,0.628H1696.659z"/>
	<path fill="#91B3FA" d="M1131.458,2661.623c-0.179,0-0.359-0.013-0.538-0.043c-1.845-0.294-3.101-2.027-2.806-3.87l6.129-38.375
		c3.289-20.618,20.832-35.804,41.711-36.111l455.56-6.663h0.051c1.845,0,3.353,1.482,3.379,3.331
		c0.026,1.869-1.465,3.405-3.33,3.432l-455.561,6.663c-17.584,0.258-32.361,13.046-35.133,30.411l-6.129,38.376
		C1134.525,2660.438,1133.09,2661.623,1131.458,2661.623z"/>
</g>
<g>
	<g opacity="0.53">
		<rect x="1613.839" y="880.2" fill="#FFFFFF" width="64.137" height="1131.265"/>
		<rect x="1721.005" y="880.2" fill="#FFFFFF" width="64.138" height="1131.265"/>
		<rect x="1828.174" y="880.2" fill="#FFFFFF" width="64.137" height="1131.265"/>
		<rect x="1935.341" y="880.2" fill="#FFFFFF" width="64.137" height="1131.265"/>
		<rect x="2042.508" y="880.2" fill="#FFFFFF" width="64.137" height="1131.265"/>
		<rect x="2149.675" y="880.2" fill="#FFFFFF" width="64.137" height="1131.265"/>
		<rect x="2256.841" y="880.2" fill="#FFFFFF" width="64.138" height="1131.265"/>
	</g>
	<linearGradient id="SVGID_4_" gradientUnits="userSpaceOnUse" x1="1754.4941" y1="1503.5059" x2="2039.5667" y2="947.0986">
		<stop  offset="0" style="stop-color:#4F52FF"/>
		<stop  offset="1" style="stop-color:#4042E2"/>
	</linearGradient>
	<rect x="1613.839" y="1419.43" fill="url(#SVGID_4_)" width="64.137" height="592.034"/>
	<linearGradient id="SVGID_5_" gradientUnits="userSpaceOnUse" x1="1880.665" y1="1568.1484" x2="2165.7383" y2="1011.7394">
		<stop  offset="0" style="stop-color:#4F52FF"/>
		<stop  offset="1" style="stop-color:#4042E2"/>
	</linearGradient>
	<rect x="1721.005" y="1622.903" fill="url(#SVGID_5_)" width="64.138" height="388.562"/>
	<linearGradient id="SVGID_6_" gradientUnits="userSpaceOnUse" x1="1863.5156" y1="1559.3613" x2="2148.5884" y2="1002.9532">
		<stop  offset="0" style="stop-color:#4F52FF"/>
		<stop  offset="1" style="stop-color:#4042E2"/>
	</linearGradient>
	<rect x="1828.174" y="1120.035" fill="url(#SVGID_6_)" width="64.137" height="891.431"/>
	<linearGradient id="SVGID_7_" gradientUnits="userSpaceOnUse" x1="2085.8262" y1="1673.2598" x2="2370.8989" y2="1116.8521">
		<stop  offset="0" style="stop-color:#4F52FF"/>
		<stop  offset="1" style="stop-color:#4042E2"/>
	</linearGradient>
	<rect x="1935.341" y="1797.309" fill="url(#SVGID_7_)" width="64.137" height="214.155"/>
	<linearGradient id="SVGID_8_" gradientUnits="userSpaceOnUse" x1="2057.4658" y1="1658.7314" x2="2342.5386" y2="1102.3235">
		<stop  offset="0" style="stop-color:#4F52FF"/>
		<stop  offset="1" style="stop-color:#4042E2"/>
	</linearGradient>
	<rect x="2042.508" y="1239.211" fill="url(#SVGID_8_)" width="64.137" height="772.253"/>
	<linearGradient id="SVGID_9_" gradientUnits="userSpaceOnUse" x1="2169.4834" y1="1716.123" x2="2454.5557" y2="1159.7162">
		<stop  offset="0" style="stop-color:#4F52FF"/>
		<stop  offset="1" style="stop-color:#4042E2"/>
	</linearGradient>
	<rect x="2149.675" y="1372.922" fill="url(#SVGID_9_)" width="64.137" height="638.543"/>
	<linearGradient id="SVGID_10_" gradientUnits="userSpaceOnUse" x1="2283.8584" y1="1774.7227" x2="2568.9321" y2="1218.3127">
		<stop  offset="0" style="stop-color:#4F52FF"/>
		<stop  offset="1" style="stop-color:#4042E2"/>
	</linearGradient>
	<rect x="2256.841" y="1518.26" fill="url(#SVGID_10_)" width="64.138" height="493.205"/>
</g>
<g>
	<g>
		<defs>
			<path id="SVGID_11_" d="M556.035,828.51c-86.054,0-155.812,69.759-155.812,155.812s69.759,155.812,155.812,155.812
				s155.812-69.76,155.812-155.812S642.089,828.51,556.035,828.51z M556.035,1073.092c-49.026,0-88.77-39.744-88.77-88.771
				c0-49.025,39.743-88.77,88.77-88.77c49.023,0,88.769,39.744,88.769,88.77C644.804,1033.348,605.059,1073.092,556.035,1073.092z"
				/>
		</defs>
		<use xlink:href="#SVGID_11_"  overflow="visible" opacity="0.57" fill="#F5CB4B"/>
		<clipPath id="SVGID_12_">
			<use xlink:href="#SVGID_11_"  overflow="visible" opacity="0.57"/>
		</clipPath>
		<rect x="338.445" y="950.055" clip-path="url(#SVGID_12_)" fill="#F5CB4B" width="462.838" height="195.87"/>
	</g>
</g>
<g>
	<g>
		<defs>
			<path id="SVGID_13_" d="M935.858,828.51c-86.053,0-155.813,69.759-155.813,155.812s69.761,155.812,155.813,155.812
				c86.054,0,155.812-69.76,155.812-155.812S1021.912,828.51,935.858,828.51z M935.858,1073.092
				c-49.025,0-88.77-39.744-88.77-88.771c0-49.025,39.744-88.77,88.77-88.77c49.026,0,88.771,39.744,88.771,88.77
				C1024.629,1033.348,984.885,1073.092,935.858,1073.092z"/>
		</defs>
		<use xlink:href="#SVGID_13_"  overflow="visible" opacity="0.57" fill="#F4CB4A"/>
		<clipPath id="SVGID_14_">
			<use xlink:href="#SVGID_13_"  overflow="visible" opacity="0.57"/>
		</clipPath>
		<rect x="718.27" y="874.345" clip-path="url(#SVGID_14_)" fill="#F4CB4A" width="462.838" height="271.579"/>
	</g>
</g>
<g>
	<defs>
		<path id="SVGID_15_" d="M1315.683,828.51c-86.054,0-155.812,69.759-155.812,155.812s69.759,155.812,155.812,155.812
			c86.053,0,155.812-69.76,155.812-155.812S1401.735,828.51,1315.683,828.51z M1315.683,1073.092
			c-49.027,0-88.771-39.744-88.771-88.771c0-49.025,39.743-88.77,88.771-88.77c49.026,0,88.77,39.744,88.77,88.77
			C1404.452,1033.348,1364.709,1073.092,1315.683,1073.092z"/>
	</defs>
	<use xlink:href="#SVGID_15_"  overflow="visible" opacity="0.57" fill="#F4CB4A"/>
	<clipPath id="SVGID_16_">
		<use xlink:href="#SVGID_15_"  overflow="visible" opacity="0.57"/>
	</clipPath>
	<rect x="1098.094" y="1047.99" clip-path="url(#SVGID_16_)" fill="#F4CB4A" width="462.836" height="97.935"/>
</g>
<g>
	<path opacity="0.44" fill="#FFFFFF" d="M1435.331,2017.724l-999.485-7.509c-19.717-0.147-35.623-16.174-35.623-35.893v-513.517
		c0-19.823,16.07-35.894,35.894-35.894h999.485c19.823,0,35.893,16.07,35.893,35.894v521.025
		C1471.494,2001.76,1455.26,2017.873,1435.331,2017.724z"/>
	<path opacity="0.44" fill="#FFFFFF" d="M1280.302,1656.764l-128.523-135.883l-184.284,200.438l-130.033-140.307l-121.954,137.861
		l-93.52-113.618L437.681,1797.14V1935.9c0,18.34,14.794,33.246,33.132,33.384l929.59,6.982
		c18.535,0.14,33.634-14.848,33.634-33.382v-377.491L1280.302,1656.764z"/>
	<rect x="1281.088" y="1652.985" fill="#FFFFFF" width="3.382" height="323.283"/>
	<rect x="1150.088" y="1520.882" fill="#FFFFFF" width="3.381" height="453.518"/>
	<rect x="965.805" y="1718.875" fill="#FFFFFF" width="3.381" height="254.142"/>
	<rect x="839.226" y="1585.981" fill="#FFFFFF" width="3.381" height="387.034"/>
	<rect x="713.815" y="1714.753" fill="#FFFFFF" width="3.383" height="258.263"/>
	<rect x="622.278" y="1595.62" fill="#FFFFFF" width="3.382" height="374.92"/>
	<linearGradient id="SVGID_17_" gradientUnits="userSpaceOnUse" x1="647.5879" y1="1524.2129" x2="529.0922" y2="1882.4563">
		<stop  offset="0" style="stop-color:#FEBBBA"/>
		<stop  offset="1" style="stop-color:#FF928E"/>
	</linearGradient>
	<circle fill="url(#SVGID_17_)" cx="623.969" cy="1595.62" r="28.241"/>
	<linearGradient id="SVGID_18_" gradientUnits="userSpaceOnUse" x1="731.0674" y1="1667.7129" x2="653.0029" y2="1903.7223">
		<stop  offset="0" style="stop-color:#FEBBBA"/>
		<stop  offset="1" style="stop-color:#FF928E"/>
	</linearGradient>
	<circle fill="url(#SVGID_18_)" cx="715.508" cy="1714.755" r="18.604"/>
	<linearGradient id="SVGID_19_" gradientUnits="userSpaceOnUse" x1="856.4746" y1="1538.9414" x2="778.4131" y2="1774.9414">
		<stop  offset="0" style="stop-color:#FEBBBA"/>
		<stop  offset="1" style="stop-color:#FF928E"/>
	</linearGradient>
	<circle fill="url(#SVGID_19_)" cx="840.914" cy="1585.982" r="18.604"/>
	<linearGradient id="SVGID_20_" gradientUnits="userSpaceOnUse" x1="983.0547" y1="1671.832" x2="904.9943" y2="1907.829">
		<stop  offset="0" style="stop-color:#FEBBBA"/>
		<stop  offset="1" style="stop-color:#FF928E"/>
	</linearGradient>
	<circle fill="url(#SVGID_20_)" cx="967.494" cy="1718.873" r="18.604"/>
	<linearGradient id="SVGID_21_" gradientUnits="userSpaceOnUse" x1="1167.3369" y1="1473.8398" x2="1089.2755" y2="1709.8398">
		<stop  offset="0" style="stop-color:#FEBBBA"/>
		<stop  offset="1" style="stop-color:#FF928E"/>
	</linearGradient>
	<circle fill="url(#SVGID_21_)" cx="1151.777" cy="1520.881" r="18.604"/>
	<linearGradient id="SVGID_22_" gradientUnits="userSpaceOnUse" x1="1298.3379" y1="1605.9453" x2="1220.2765" y2="1841.9453">
		<stop  offset="0" style="stop-color:#4F52FF"/>
		<stop  offset="1" style="stop-color:#4042E2"/>
	</linearGradient>
	<circle fill="url(#SVGID_22_)" cx="1282.777" cy="1652.986" r="18.604"/>
</g>
<g opacity="0.48">
	<path fill="#FFFFFF" d="M689.023,1339.418H415.038c-11.462,0-20.754,6.471-20.754,14.452c0,7.982,9.292,14.452,20.754,14.452
		h273.985c11.462,0,20.754-6.47,20.754-14.452C709.777,1345.889,700.485,1339.418,689.023,1339.418z"/>
	<path fill="#FFFFFF" d="M689.023,1275.424H415.038c-11.462,0-20.754,6.471-20.754,14.453c0,7.981,9.292,14.452,20.754,14.452
		h273.985c11.462,0,20.754-6.471,20.754-14.452C709.777,1281.895,700.485,1275.424,689.023,1275.424z"/>
	<path fill="#FFFFFF" d="M689.023,1211.432H415.038c-11.462,0-20.754,6.47-20.754,14.452c0,7.981,9.292,14.452,20.754,14.452
		h273.985c11.462,0,20.754-6.471,20.754-14.452C709.777,1217.901,700.485,1211.432,689.023,1211.432z"/>
</g>
<g opacity="0.48">
	<path fill="#FFFFFF" d="M1069.884,1339.418H795.897c-11.463,0-20.754,6.471-20.754,14.452c0,7.982,9.291,14.452,20.754,14.452
		h273.986c11.461,0,20.752-6.47,20.752-14.452C1090.636,1345.889,1081.345,1339.418,1069.884,1339.418z"/>
	<path fill="#FFFFFF" d="M1069.884,1275.424H795.897c-11.463,0-20.754,6.471-20.754,14.453c0,7.981,9.291,14.452,20.754,14.452
		h273.986c11.461,0,20.752-6.471,20.752-14.452C1090.636,1281.895,1081.345,1275.424,1069.884,1275.424z"/>
	<path fill="#FFFFFF" d="M1069.884,1211.432H795.897c-11.463,0-20.754,6.47-20.754,14.452c0,7.981,9.291,14.452,20.754,14.452
		h273.986c11.461,0,20.752-6.471,20.752-14.452C1090.636,1217.901,1081.345,1211.432,1069.884,1211.432z"/>
</g>
<g opacity="0.48">
	<path fill="#FFFFFF" d="M1450.74,1339.418h-273.983c-11.464,0-20.754,6.471-20.754,14.452c0,7.982,9.29,14.452,20.754,14.452
		h273.983c11.463,0,20.754-6.47,20.754-14.452C1471.494,1345.889,1462.203,1339.418,1450.74,1339.418z"/>
	<path fill="#FFFFFF" d="M1450.74,1275.424h-273.983c-11.464,0-20.754,6.471-20.754,14.453c0,7.981,9.29,14.452,20.754,14.452
		h273.983c11.463,0,20.754-6.471,20.754-14.452C1471.494,1281.895,1462.203,1275.424,1450.74,1275.424z"/>
	<path fill="#FFFFFF" d="M1450.74,1211.432h-273.983c-11.464,0-20.754,6.47-20.754,14.452c0,7.981,9.29,14.452,20.754,14.452
		h273.983c11.463,0,20.754-6.471,20.754-14.452C1471.494,1217.901,1462.203,1211.432,1450.74,1211.432z"/>
</g>
<g>
	<g>
		<linearGradient id="SVGID_23_" gradientUnits="userSpaceOnUse" x1="2483.1826" y1="1399.5566" x2="2736.7354" y2="1399.5566">
			<stop  offset="0" style="stop-color:#DAE3FE"/>
			<stop  offset="1" style="stop-color:#E9EFFD"/>
		</linearGradient>
		<circle fill="url(#SVGID_23_)" cx="2609.959" cy="1399.557" r="126.776"/>
		<path fill="#91B3FA" d="M2685.289,1372.763c3.924,9.542,6.103,19.986,6.103,30.943c0,44.974-36.459,81.433-81.432,81.433
			c-44.976,0-81.433-36.459-81.433-81.433s36.457-81.433,81.433-81.433c1.377,0,2.746,0.037,4.106,0.104v-20.643
			c-1.363-0.054-2.73-0.089-4.106-0.089c-56.367,0-102.061,45.693-102.061,102.06s45.693,102.06,102.061,102.06
			c56.365,0,102.059-45.693,102.059-102.06c0-13.879-2.775-27.108-7.793-39.171L2685.289,1372.763z"/>
		<path opacity="0.5" fill="#FFFFFF" d="M2714.161,1580.035h-206.595c-12.967,0-23.479,10.512-23.479,23.479
			s10.513,23.479,23.479,23.479h206.595c12.967,0,23.479-10.512,23.479-23.479S2727.128,1580.035,2714.161,1580.035z"/>
	</g>
	<g>
		<linearGradient id="SVGID_24_" gradientUnits="userSpaceOnUse" x1="2482.6387" y1="992.0859" x2="2736.1914" y2="992.0859">
			<stop  offset="0" style="stop-color:#DAE3FE"/>
			<stop  offset="1" style="stop-color:#E9EFFD"/>
		</linearGradient>
		<circle fill="url(#SVGID_24_)" cx="2609.415" cy="992.086" r="126.776"/>
		<path fill="#91B3FA" d="M2652.51,1065.132c-12.563,7.93-27.435,12.536-43.389,12.536c-44.975,0-81.433-36.458-81.433-81.433
			c0-44.974,36.458-81.432,81.433-81.432c1.377,0,2.746,0.036,4.107,0.104v-20.643c-1.363-0.054-2.731-0.089-4.107-0.089
			c-56.366,0-102.06,45.693-102.06,102.06s45.693,102.06,102.06,102.06c19.673,0,38.04-5.57,53.623-15.213L2652.51,1065.132z"/>
		<path opacity="0.5" fill="#FFFFFF" d="M2714.705,1172.564H2508.11c-12.967,0-23.479,10.513-23.479,23.48
			c0,12.967,10.512,23.479,23.479,23.479h206.595c12.968,0,23.479-10.512,23.479-23.479
			C2738.185,1183.077,2727.673,1172.564,2714.705,1172.564z"/>
	</g>
	<g>
		<circle opacity="0.91" fill="#FFFFFF" cx="2610.412" cy="1809.102" r="126.776"/>
		<linearGradient id="SVGID_25_" gradientUnits="userSpaceOnUse" x1="2757.0586" y1="1671.5381" x2="2364.6875" y2="2043.9091">
			<stop  offset="0" style="stop-color:#FDF53F"/>
			<stop  offset="1" style="stop-color:#D93C65"/>
		</linearGradient>
		<path fill="url(#SVGID_25_)" d="M2679.454,1854.886c-14.655,21.516-39.347,35.647-67.344,35.647
			c-44.974,0-81.433-36.458-81.433-81.432s36.459-81.433,81.433-81.433c1.378,0,2.747,0.037,4.108,0.104v-20.643
			c-1.364-0.054-2.731-0.089-4.108-0.089c-56.365,0-102.06,45.693-102.06,102.06s45.694,102.06,102.06,102.06
			c34.87,0,65.649-17.491,84.06-44.175L2679.454,1854.886z"/>
		<path opacity="0.5" fill="#FFFFFF" d="M2507.115,2032.39h206.595c12.966,0,23.478-10.513,23.478-23.479
			c0-12.968-10.512-23.48-23.478-23.48h-206.595c-12.968,0-23.48,10.513-23.48,23.48
			C2483.635,2021.877,2494.147,2032.39,2507.115,2032.39z"/>
	</g>
</g>
<linearGradient id="SVGID_26_" gradientUnits="userSpaceOnUse" x1="138.4238" y1="2680.4883" x2="-389.8933" y2="3255.1494" gradientTransform="matrix(-1 0 0 1 2625.5664 0)">
	<stop  offset="0" style="stop-color:#09005D"/>
	<stop  offset="1" style="stop-color:#1A0F91"/>
</linearGradient>
<path fill="url(#SVGID_26_)" d="M2654.146,2723.296c0,0,5.471,30.975,8.153,61.636c1.049,11.983-8.189,22.388-20.208,22.889
	c-40.832,1.7-128.172,5.007-159.514,3.608c-4.711-0.21-7.792-5.033-6.048-9.416c1.461-3.672,4.279-6.641,7.87-8.29l144.271-66.308
	L2654.146,2723.296z"/>
<linearGradient id="SVGID_27_" gradientUnits="userSpaceOnUse" x1="-33.0615" y1="2723.1689" x2="13.8672" y2="2723.1689" gradientTransform="matrix(-1 0 0 1 2625.5664 0)">
	<stop  offset="0" style="stop-color:#FEBBBA"/>
	<stop  offset="1" style="stop-color:#FF928E"/>
</linearGradient>
<path fill="url(#SVGID_27_)" d="M2658.628,2705.097l-4.396,37.05c0,0-25.271,11.765-42.532-1.483l10.468-41.287L2658.628,2705.097z"
	/>
<linearGradient id="SVGID_28_" gradientUnits="userSpaceOnUse" x1="-144.3369" y1="2364.3457" x2="10.8286" y2="2364.3457" gradientTransform="matrix(-1 0 0 1 2625.5664 0)">
	<stop  offset="0" style="stop-color:#4F52FF"/>
	<stop  offset="1" style="stop-color:#4042E2"/>
</linearGradient>
<path fill="url(#SVGID_28_)" d="M2655.323,2008.558c1.899,9.676,10.192,482.816-40.383,694.847c-0.825,3.46,0.929,7.025,4.221,8.371
	c7.759,3.17,22.967,7.759,41.189,8.371c5.645,0.189,10.705-3.479,12.297-8.896c14.457-49.194,83.731-295.672,92.768-531.124
	c10.099-263.096,0-8.958,0-8.958l-5.922-162.63L2655.323,2008.558z"/>
<linearGradient id="SVGID_29_" gradientUnits="userSpaceOnUse" x1="19.9043" y1="2571.5273" x2="-508.4125" y2="3146.188" gradientTransform="matrix(-1 0 0 1 2625.5664 0)">
	<stop  offset="0" style="stop-color:#09005D"/>
	<stop  offset="1" style="stop-color:#1A0F91"/>
</linearGradient>
<path fill="url(#SVGID_29_)" d="M2820.104,2739.455c0,0,8.71,15.638,17.142,57.188c1.522,7.504-3.721,14.686-11.341,15.435
	c-13.482,1.326-34.237,3.031-50.864,2.916c-7.664-0.053-13.646-6.726-12.723-14.335c1.842-15.166,7.579-40.05,25.303-59.444
	L2820.104,2739.455z"/>
<linearGradient id="SVGID_30_" gradientUnits="userSpaceOnUse" x1="-202.1875" y1="2720.7617" x2="-161.6689" y2="2720.7617" gradientTransform="matrix(-1 0 0 1 2625.5664 0)">
	<stop  offset="0" style="stop-color:#FEBBBA"/>
	<stop  offset="1" style="stop-color:#FF928E"/>
</linearGradient>
<path fill="url(#SVGID_30_)" d="M2827.754,2691.802l-10.272,56.028c0,0-10.155,7.554-30.246,2.078l4.903-60.284L2827.754,2691.802z"
	/>
<linearGradient id="SVGID_31_" gradientUnits="userSpaceOnUse" x1="-245.8589" y1="2359.2686" x2="-25.5732" y2="2359.2686" gradientTransform="matrix(-1 0 0 1 2625.5664 0)">
	<stop  offset="0" style="stop-color:#4F52FF"/>
	<stop  offset="1" style="stop-color:#4042E2"/>
</linearGradient>
<path fill="url(#SVGID_31_)" d="M2855.503,2023.077c41.362,249.633-8.975,616.988-25.95,688.889
	c-1.039,4.402-4.593,7.774-9.053,8.515c-7.578,1.256-20.055,2.28-32.354-1.292c-4.237-1.23-7.215-5.053-7.387-9.462
	c-2.278-58.13,1.821-414.987-36.721-556.019c-1.952-7.147-6.318-13.381-12.356-17.674l-74.806-53.181l-5.736-85.963
	L2855.503,2023.077z"/>
<path fill="#F4CB4A" d="M2591.931,1550.071c123.959-2.049,260.734,32.548,260.734,32.548
	c36.949,215.601,6.462,464.279,6.462,464.279c-95.967,25.167-204.223-15.387-204.223-15.387
	c-15.95-90.115-90.369-343.731-90.369-343.731c-60.566-7.517-110.459-24.99-151.548-48.093
	c31.342-36.329,46.116-82.555,52.533-109.881C2509.349,1543.428,2553.697,1550.703,2591.931,1550.071z"/>
<linearGradient id="SVGID_32_" gradientUnits="userSpaceOnUse" x1="160.0459" y1="1498.8887" x2="399.79" y2="1498.8887" gradientTransform="matrix(-1 0 0 1 2625.5664 0)">
	<stop  offset="0" style="stop-color:#FEBBBA"/>
	<stop  offset="1" style="stop-color:#FF928E"/>
</linearGradient>
<path fill="url(#SVGID_32_)" d="M2225.776,1367.485c12.178-14.708,27.589-7.75,27.589-7.75
	c18.242,77.055,113.891,139.532,212.155,170.071c-6.417,27.326-21.191,73.552-52.533,109.881
	C2249.908,1547.994,2225.776,1367.485,2225.776,1367.485z"/>
<g>
	
		<linearGradient id="SVGID_33_" gradientUnits="userSpaceOnUse" x1="9589.3965" y1="1458.7031" x2="9750.2705" y2="1824.7288" gradientTransform="matrix(1 0 0 1 -7310.2119 0)">
		<stop  offset="0" style="stop-color:#FEBBBA"/>
		<stop  offset="1" style="stop-color:#FF928E"/>
	</linearGradient>
	<path fill="url(#SVGID_33_)" d="M2228.732,1371.226c-1.274,4.051,13.481,10.219,22.169-6.349
		c0.304-7.939,5.132-41.955,0.388-48.423c-25.269-34.449-74.259-77.634-74.259-77.634c-8.277,8.17-1.458,16.196-1.458,16.196
		l23.765,24.757c-4.971,8.983-11.034,16.565-13.875,27.432c-2.152,8.228-0.835,17.021,3.32,24.51
		c4.172,7.516,9.863,17.286,15.243,24.932C2214.21,1371.117,2228.732,1371.226,2228.732,1371.226z"/>
	
		<linearGradient id="SVGID_34_" gradientUnits="userSpaceOnUse" x1="398.6387" y1="1336.8027" x2="465.7647" y2="1233.5963" gradientTransform="matrix(-1 0 0 1 2625.5664 0)">
		<stop  offset="0" style="stop-color:#FEBBBA"/>
		<stop  offset="1" style="stop-color:#FF928E"/>
	</linearGradient>
	<path fill="url(#SVGID_34_)" d="M2209.732,1295.837l21.657,18.359l6.8,18.279l-19.31,21.421c0,0-6.492-36.269-11.317-44.119
		C2202.736,1301.929,2205.239,1298.133,2209.732,1295.837z"/>
</g>
<path fill="#F4CB4A" d="M2805.119,1702.647l47.546-120.028c0,0,115.784,78.671,134.826,178.417
	c-21.878,1.61-61.688,7.301-100.654,26.977C2878.274,1740.914,2805.119,1702.647,2805.119,1702.647z"/>
<linearGradient id="SVGID_35_" gradientUnits="userSpaceOnUse" x1="-364.5645" y1="1838.4805" x2="-61.166" y2="1838.4805" gradientTransform="matrix(-1 0 0 1 2625.5664 0)">
	<stop  offset="0" style="stop-color:#FEBBBA"/>
	<stop  offset="1" style="stop-color:#FF928E"/>
</linearGradient>
<path fill="url(#SVGID_35_)" d="M2703.936,1815.591c0,0,129.998,73.469,173.86,10.735c9.107-13.026,11.284-25.972,9.041-38.313
	c38.967-19.676,78.776-25.366,100.654-26.977c5.741,30.069,2.706,62.051-14.964,94.374c-76.833,140.55-285.795-7.768-285.795-7.768
	L2703.936,1815.591z"/>
<g>
	
		<linearGradient id="SVGID_36_" gradientUnits="userSpaceOnUse" x1="30.623" y1="1622.7734" x2="197.4507" y2="2317.8906" gradientTransform="matrix(-1 0 0 1 2625.5664 0)">
		<stop  offset="0" style="stop-color:#09005D"/>
		<stop  offset="1" style="stop-color:#1A0F91"/>
	</linearGradient>
	<path fill="url(#SVGID_36_)" d="M2719.556,1908.536l-70.947-247.765c-0.806-2.813-3.205-4.864-6.111-5.203
		c-12.854-1.5-50.102-5.71-93.107-9.348c-51.801-4.382-111.959-7.933-147.907-4.912c-5.11,0.43-8.198,5.835-5.926,10.433
		c20.441,41.357,104.529,209.589,146.637,264.699c1.396,1.826,3.553,2.894,5.851,2.872l164.609-1.532
		C2717.443,1917.736,2720.875,1913.141,2719.556,1908.536z"/>
	
		<linearGradient id="SVGID_37_" gradientUnits="userSpaceOnUse" x1="135.0723" y1="1513.2041" x2="99.5422" y2="1669.2272" gradientTransform="matrix(-1 0 0 1 2625.5664 0)">
		<stop  offset="0" style="stop-color:#4F52FF"/>
		<stop  offset="1" style="stop-color:#4042E2"/>
	</linearGradient>
	<path fill="url(#SVGID_37_)" d="M2542.031,1624.74l-51.439-8.57c-2.739-0.457-4.982,2.161-4.112,4.798l5.092,15.43
		c0.444,1.344,1.615,2.315,3.018,2.503l49.498,6.611c2.562,0.343,4.673-1.984,4.084-4.5l-3.152-13.471
		C2544.679,1626.09,2543.5,1624.985,2542.031,1624.74z"/>
	
		<linearGradient id="SVGID_38_" gradientUnits="userSpaceOnUse" x1="116.4775" y1="1578.6504" x2="99.4849" y2="1680.6067" gradientTransform="matrix(-1 0 0 1 2625.5664 0)">
		<stop  offset="0" style="stop-color:#4F52FF"/>
		<stop  offset="1" style="stop-color:#4042E2"/>
	</linearGradient>
	<path fill="url(#SVGID_38_)" d="M2580.547,1668.287l-4.237-22.072c-0.426-2.214-2.254-3.887-4.496-4.114l-103.894-10.543
		c-3.497-0.355-6.297,2.85-5.476,6.268l6.604,27.505c0.529,2.2,2.444,3.79,4.706,3.903l101.524,5.111
		C2578.585,1674.511,2581.17,1671.536,2580.547,1668.287z"/>
	
		<linearGradient id="SVGID_39_" gradientUnits="userSpaceOnUse" x1="-83.6919" y1="1806.668" x2="10.8291" y2="1806.668" gradientTransform="matrix(-1 0 0 1 2625.5664 0)">
		<stop  offset="0" style="stop-color:#FEBBBA"/>
		<stop  offset="1" style="stop-color:#FF928E"/>
	</linearGradient>
	<path fill="url(#SVGID_39_)" d="M2702.414,1848.676c0,0,9.884-40.639,5.896-55.057c-3.986-14.418-11.71-32.955-37.456-28.836
		c-25.747,4.12-56.117,14.966-56.117,14.966s1.534,18.779,21.102,12.721l-12.134,9.389c0,0,1.734,15.037,18.263,7.004
		l-11.286,12.451c0,0,7.099,12.35,19.259,4.429S2667.93,1853.569,2702.414,1848.676z"/>
</g>
<linearGradient id="SVGID_40_" gradientUnits="userSpaceOnUse" x1="-131.5967" y1="1514.1289" x2="-11.6436" y2="1514.1289" gradientTransform="matrix(-1 0 0 1 2625.5664 0)">
	<stop  offset="0" style="stop-color:#FEBBBA"/>
	<stop  offset="1" style="stop-color:#FF928E"/>
</linearGradient>
<path fill="url(#SVGID_40_)" d="M2717.491,1449.436l39.442,114.063c0.653,1.889-0.124,3.981-1.874,4.949
	c-10.751,5.944-49.486,23.126-96.166-6.47c-4.862-3.083-8.173-8.111-8.912-13.821l-12.771-98.722H2717.491z"/>
<g>
	
		<linearGradient id="SVGID_41_" gradientUnits="userSpaceOnUse" x1="-711.9556" y1="-1119.1982" x2="-866.1392" y2="-915.2259" gradientTransform="matrix(-0.8116 -0.5843 -0.5843 0.8116 1421.4551 1842.3652)">
		<stop  offset="0" style="stop-color:#FEBBBA"/>
		<stop  offset="1" style="stop-color:#FF928E"/>
	</linearGradient>
	<path fill="url(#SVGID_41_)" d="M2629.19,1331.616c-1.188,1.649-38.254,130.843-38.254,130.843l74.218,19.596l53.322-117.229
		C2718.477,1364.826,2649.075,1303.997,2629.19,1331.616z"/>
	
		<linearGradient id="SVGID_42_" gradientUnits="userSpaceOnUse" x1="-829.7095" y1="-1070.2139" x2="-645.5356" y2="-1070.2139" gradientTransform="matrix(-0.8116 -0.5843 -0.5843 0.8116 1421.4551 1842.3652)">
		<stop  offset="0" style="stop-color:#09005D"/>
		<stop  offset="1" style="stop-color:#1A0F91"/>
	</linearGradient>
	<path fill="url(#SVGID_42_)" d="M2689.004,1373.503c1.819,2.896,2.199,6.45,1.03,9.665l-22.901,62.985
		c-0.348,0.955-0.809,1.849-1.408,2.67c-3.301,4.532-14.97,18.114-28.509,5.33c-11.539-10.896-22.293-20.749-32.346-23.724
		c-5.87-1.737-12.004,1.749-13.67,7.64c-3.433,12.135-9.863,36.76-12.505,59.439c-0.662,5.686,3.217,10.898,8.833,11.997
		c14.821,2.901,43.933,7.702,68.678,6.353c4.065-0.221,7.66-2.651,9.39-6.336c7.614-16.216,29.137-61.58,37.184-73.45
		c7.476-11.028,25.253-10.866,33.389-10.146c3.088,0.272,6.125-0.737,8.427-2.812c6.905-6.226,18.274-20.6,1.94-38.034
		c-4.061-4.334-3.754-11.217,0.496-15.366c7.615-7.436,14.996-20.052,2.587-35.755c-12.563-15.897-29.186-14.32-40.033-10.806
		c-4.801,1.554-10.291-0.056-13.066-4.27c-1.233-1.875-3.229-3.289-6.438-3.316c-6.054-0.052-10.909-4.636-10.897-10.689
		c0.021-10.379-3.974-23.082-21.643-28.763c-32.403-10.419-52.963,20.788-55.189,44.196c-2.226,23.409,33.548,32.707,54.646,31.324
		C2672.497,1350.62,2683.993,1365.521,2689.004,1373.503z"/>
	
		<linearGradient id="SVGID_43_" gradientUnits="userSpaceOnUse" x1="-937.7749" y1="-957.666" x2="-814.1067" y2="-1084.5463" gradientTransform="matrix(-0.8116 -0.5843 -0.5843 0.8116 1421.4551 1842.3652)">
		<stop  offset="0" style="stop-color:#FEBBBA"/>
		<stop  offset="1" style="stop-color:#FF928E"/>
	</linearGradient>
	<path fill="url(#SVGID_43_)" d="M2694.087,1459.258c0,0,5.63-40.622,22.566-42.457c16.938-1.835,33.275,12.225,16.241,34.896
		C2711.706,1479.896,2694.087,1459.258,2694.087,1459.258z"/>
</g>
</svg>
